<svg width="65" height="65" viewBox="0 0 65 65" fill="none" xmlns="http://www.w3.org/2000/svg">
<path fill-rule="evenodd" clip-rule="evenodd" d="M32.165 64.33C49.9292 64.33 64.33 49.9292 64.33 32.165C64.33 14.4008 49.9292 0 32.165 0C14.4008 0 0 14.4008 0 32.165C0 49.9292 14.4008 64.33 32.165 64.33ZM32.0001 30.8862C30.3702 27.5147 25.9308 21.2321 21.8035 18.1336H21.8033C18.8253 15.8978 14 14.1679 14 19.6726C14 20.7718 14.6303 28.9077 15 30.2286C16.2848 34.8207 20.9674 35.9919 25.1327 35.283C17.8519 36.5219 15.9999 40.6266 19.9998 44.7311C27.5967 52.5264 30.9185 42.7757 31.7698 40.2769L31.7699 40.2767C31.9259 39.8187 31.9989 39.6044 32 39.7866C32.0011 39.6044 32.0741 39.8187 32.2301 40.2767L32.2305 40.2778C33.0827 42.7781 36.4047 52.5252 44.0002 44.7311C48.0001 40.6266 46.148 36.5222 38.8673 35.283C43.0325 35.9919 47.715 34.8207 49 30.2286C49.3697 28.9078 50 20.772 50 19.6726C50 14.1679 45.1748 15.8978 42.1967 18.1336C38.0693 21.2321 33.6301 27.5149 32.0001 30.8862Z" fill="url(#paint0_linear_539_52)"/>
<defs>
<linearGradient id="paint0_linear_539_52" x1="32.165" y1="0" x2="32.165" y2="64.33" gradientUnits="userSpaceOnUse">
<stop stop-color="white"/>
<stop offset="1" stop-color="#D9D9D9" stop-opacity="0.5"/>
</linearGradient>
</defs>
</svg>
