<svg width="119" height="119" viewBox="0 0 119 119" fill="none" xmlns="http://www.w3.org/2000/svg">
<circle cx="59.5" cy="59.5" r="59.5" fill="#0486C0"/>
<path d="M93.7771 78.3317L73.7842 58.3388L81.4693 50.6537L69.9127 39.0971L62.2276 46.7822L42.2347 26.7893C39.9811 24.5357 36.283 24.5357 34.0295 26.7893L27.7889 33.0298C25.5354 35.2834 25.5354 38.9815 27.7889 41.235L47.7818 61.228L26.1132 82.8966V94.4532H37.6698L59.3384 72.7846L79.3314 92.7775C81.5849 95.031 85.2252 95.031 87.4788 92.7775L93.7193 86.5369C96.0307 84.2834 96.0307 80.5853 93.7771 78.3317ZM31.8915 37.1324L38.1321 30.8919L42.1191 34.8789L38.9988 37.9992L42.8125 41.8706L45.9328 38.7504L52.0578 44.8754L48.9375 47.9956L52.809 51.8671L55.9292 48.7468L58.125 50.9426L51.8844 57.1254L31.8915 37.1324ZM35.3007 88.6749H31.8915V85.2657L69.9127 47.2445L73.3219 50.6537L35.3007 88.6749ZM83.434 88.6749L63.441 68.682L69.6816 62.4414L71.9929 64.7527L68.8726 67.873L72.7441 71.7445L75.8644 68.6242L81.9894 74.7492L78.8691 77.8695L82.7406 81.7409L85.8608 78.6206L89.6745 82.4343L83.434 88.6749Z" fill="white"/>
<path d="M93.2571 38.8652C94.4127 37.7096 94.4127 35.9183 93.2571 34.7626L85.803 27.3086C84.6474 26.153 82.8561 26.153 81.7004 27.3086L73.9575 35.0516L85.5141 46.6082L93.2571 38.8652Z" fill="white"/>
</svg>
