<svg width="71" height="71" viewBox="0 0 71 71" fill="none" xmlns="http://www.w3.org/2000/svg">
<path fill-rule="evenodd" clip-rule="evenodd" d="M35.6 71.0002C55.1508 71.0002 71 55.1511 71 35.6002C71 16.0493 55.1508 0.200195 35.6 0.200195C16.0491 0.200195 0.199951 16.0493 0.199951 35.6002C0.199951 55.1511 16.0491 71.0002 35.6 71.0002ZM32.1484 32.5246H32.1487C32.7329 32.5247 33.2932 32.7568 33.7062 33.1699C34.1193 33.583 34.3514 34.1433 34.3514 34.7275C34.3513 35.3117 34.1193 35.872 33.7062 36.2851C33.293 36.6982 32.7328 36.9303 32.1485 36.9303C31.5643 36.9303 31.004 36.6982 30.5909 36.2851C30.1778 35.872 29.9457 35.3117 29.9457 34.7275C29.9457 34.1433 30.1778 33.583 30.5908 33.1699C31.0039 32.7568 31.5642 32.5247 32.1484 32.5246ZM38.62 32.8271C39.0401 32.5893 39.5223 32.4839 40.0033 32.5246C40.3043 32.5372 40.5999 32.609 40.8731 32.7359C41.1464 32.8628 41.3919 33.0422 41.5958 33.2641C41.7996 33.4859 41.9577 33.7457 42.0611 34.0287C42.1644 34.3117 42.211 34.6122 42.1982 34.9132C42.1982 35.396 42.0525 35.8675 41.7801 36.2661C41.5076 36.6647 41.1212 36.9717 40.6714 37.147C40.2216 37.3223 39.7293 37.3577 39.259 37.2486C38.7887 37.1395 38.3624 36.8909 38.0357 36.5354C37.7091 36.1799 37.4973 35.7341 37.4283 35.2563C37.3592 34.7785 37.436 34.2909 37.6487 33.8575C37.8613 33.4241 38.1999 33.0649 38.62 32.8271ZM21.6256 14.4697H50.4617C51.0425 14.471 51.6173 14.5868 52.1533 14.8103C52.6894 15.0339 53.1761 15.3608 53.5858 15.7724C53.9954 16.1841 54.32 16.6724 54.5409 17.2095C54.7619 17.7466 54.8749 18.322 54.8734 18.9028V57.509L50.2467 53.4202L47.6427 51.01L44.8883 48.4491L46.0288 52.4303H21.6256C21.0449 52.4289 20.4701 52.3132 19.9341 52.0897C19.3981 51.8661 18.9113 51.5392 18.5017 51.1276C18.092 50.7159 17.7674 50.2276 17.5465 49.6905C17.3255 49.1534 17.2126 48.5781 17.214 47.9973V18.9028C17.2125 18.322 17.3255 17.7466 17.5464 17.2095C17.7674 16.6724 18.0919 16.1841 18.5016 15.7724C18.9113 15.3608 19.398 15.0339 19.934 14.8103C20.4701 14.5868 21.0449 14.471 21.6256 14.4697ZM42.1553 42.5744V42.5743C43.4364 42.6068 44.706 42.3257 45.8537 41.7557C47.0014 41.1856 47.9925 40.3438 48.7407 39.3034C48.6708 34.9408 47.6112 30.651 45.6417 26.7575C43.9087 25.3963 41.7958 24.6068 39.5948 24.498L39.2937 24.8421C41.253 25.3636 43.0793 26.2951 44.6518 27.5751C42.648 26.4707 40.4475 25.7689 38.1743 25.5093C36.7289 25.35 35.2695 25.3644 33.8275 25.5522C33.7045 25.5559 33.582 25.5703 33.4615 25.5954C31.7719 25.7874 30.1232 26.2449 28.5763 26.951C27.7802 27.3169 27.3067 27.5751 27.3067 27.5751C28.9631 26.231 30.8954 25.2685 32.9662 24.7561L32.7511 24.4978C30.5501 24.6067 28.4372 25.3962 26.7041 26.7573C24.7349 30.6508 23.6753 34.9407 23.6055 39.3033C24.3476 40.3447 25.3344 41.1877 26.4789 41.758C27.6234 42.3284 28.8906 42.6087 30.1689 42.5743C30.1689 42.5743 30.9652 41.6061 31.6105 40.7882C30.0976 40.4065 28.7656 39.5084 27.8445 38.2489C27.8445 38.2489 28.0601 38.3996 28.4472 38.6148C28.4718 38.6413 28.5009 38.6632 28.5333 38.6793C28.5655 38.7007 28.5977 38.7168 28.6298 38.7329C28.6622 38.7491 28.6945 38.7653 28.7269 38.7869C29.2332 39.0665 29.758 39.311 30.2978 39.5186C31.322 39.9227 32.3809 40.2324 33.4614 40.4439C35.3017 40.7974 37.1919 40.8047 39.0349 40.4654C40.1071 40.2778 41.1542 39.9673 42.1553 39.5399C43.0255 39.2117 43.8558 38.7858 44.63 38.2704C43.6744 39.5569 42.2947 40.464 40.7348 40.8312C41.3804 41.649 42.1553 42.5744 42.1553 42.5744Z" fill="url(#paint0_linear_70_60)"/>
<defs>
<linearGradient id="paint0_linear_70_60" x1="35.6" y1="0.200195" x2="35.6" y2="71.0002" gradientUnits="userSpaceOnUse">
<stop stop-color="white"/>
<stop offset="1" stop-color="#D9D9D9" stop-opacity="0.5"/>
</linearGradient>
</defs>
</svg>
