<svg width="67" height="65" viewBox="0 0 67 65" fill="none" xmlns="http://www.w3.org/2000/svg">
<path d="M33.6595 0.891602C29.3597 0.891602 25.1021 1.73849 21.1297 3.38392C17.1573 5.02934 13.5479 7.44108 10.5076 10.4814C4.36729 16.6217 0.917725 24.9497 0.917725 33.6333C0.917725 48.1052 10.3146 60.3833 23.3131 64.738C24.9502 64.9999 25.474 63.9849 25.474 63.1009C25.474 62.3478 25.474 60.2851 25.474 57.5675C16.4046 59.532 14.4728 53.1801 14.4728 53.1801C12.9667 49.3821 10.8385 48.3671 10.8385 48.3671C7.85897 46.3371 11.0677 46.4026 11.0677 46.4026C14.3418 46.6318 16.0771 49.775 16.0771 49.775C18.9257 54.7518 23.7387 53.2784 25.605 52.4926C25.8997 50.3644 26.7509 48.9237 27.6677 48.1052C20.3991 47.2866 12.7702 44.4708 12.7702 31.9962C12.7702 28.3619 14.0144 25.4479 16.1426 23.1232C15.8152 22.3047 14.6693 18.8996 16.47 14.4794C16.47 14.4794 19.2204 13.5954 25.474 17.8191C28.0606 17.0988 30.8764 16.7386 33.6595 16.7386C36.4425 16.7386 39.2583 17.0988 41.8449 17.8191C48.0986 13.5954 50.8489 14.4794 50.8489 14.4794C52.6497 18.8996 51.5037 22.3047 51.1763 23.1232C53.3045 25.4479 54.5487 28.3619 54.5487 31.9962C54.5487 44.5036 46.8871 47.2539 39.5857 48.0724C40.7644 49.0874 41.8449 51.0847 41.8449 54.1297V63.1009C41.8449 63.9849 42.3688 65.0327 44.0386 64.738C57.037 60.3506 66.4012 48.1052 66.4012 33.6333C66.4012 29.3336 65.5543 25.076 63.9089 21.1036C62.2634 17.1312 59.8517 13.5218 56.8114 10.4814C53.771 7.44108 50.1616 5.02934 46.1892 3.38392C42.2168 1.73849 37.9592 0.891602 33.6595 0.891602Z" fill="url(#paint0_linear_70_54)"/>
<defs>
<linearGradient id="paint0_linear_70_54" x1="33.6595" y1="0.891602" x2="33.6595" y2="64.7887" gradientUnits="userSpaceOnUse">
<stop stop-color="white"/>
<stop offset="1" stop-color="#D9D9D9" stop-opacity="0.5"/>
</linearGradient>
</defs>
</svg>
