<svg width="34" height="35" viewBox="0 0 34 35" fill="none" xmlns="http://www.w3.org/2000/svg">
<path d="M14.8905 8.07661L9.54534 1.56067C8.92867 0.808931 7.79953 0.813789 7.08349 1.57129L2.68791 6.22138C1.37972 7.60532 1.00526 9.6607 1.76118 11.3083C6.31419 21.2318 13.8087 29.1604 23.1891 33.977C24.7466 34.7766 26.6895 34.3805 27.9977 32.9966L32.435 28.3022C33.1539 27.5418 33.1552 26.3418 32.4382 25.6914L26.2435 20.0742C25.5952 19.4862 24.5894 19.5634 23.9396 20.2508L21.7848 22.5304C21.5451 22.784 21.1849 22.8446 20.9109 22.6776C17.3823 20.5282 14.4738 17.4514 12.442 13.7185C12.2842 13.4286 12.3416 13.0475 12.5812 12.794L14.7295 10.5213C15.382 9.83104 15.4525 8.7617 14.8905 8.07661V8.07661Z" fill="url(#paint0_linear_100_38)" stroke="black" stroke-linecap="round" stroke-linejoin="round"/>
<defs>
<linearGradient id="paint0_linear_100_38" x1="17.1747" y1="1" x2="17.1747" y2="34.3862" gradientUnits="userSpaceOnUse">
<stop stop-color="white"/>
<stop offset="1" stop-color="#D9D9D9" stop-opacity="0.5"/>
</linearGradient>
</defs>
</svg>
