<svg width="70" height="70" viewBox="0 0 70 70" fill="none" xmlns="http://www.w3.org/2000/svg">
<path d="M49.2921 24.2123C48.9919 23.4348 48.5322 22.7288 47.9426 22.1398C47.3529 21.5508 46.6465 21.0918 45.8687 20.7925C44.7977 20.3958 43.6665 20.1861 42.5245 20.1726C40.6254 20.0862 40.056 20.0645 35.2452 20.0645C30.4344 20.0645 29.865 20.0862 27.9659 20.1726C26.8227 20.1857 25.6902 20.3954 24.6181 20.7925C23.8406 21.0927 23.1347 21.5524 22.5457 22.142C21.9566 22.7316 21.4977 23.4381 21.1983 24.2159C20.8016 25.2869 20.592 26.4181 20.5785 27.5601C20.492 29.4592 20.4704 30.0285 20.4704 34.8394C20.4704 39.6502 20.492 40.2196 20.5785 42.1187C20.5916 43.2619 20.8012 44.3943 21.1983 45.4664C21.4985 46.2439 21.9582 46.9499 22.5478 47.5389C23.1375 48.1279 23.8439 48.5869 24.6217 48.8863C25.6927 49.2829 26.8239 49.4926 27.9659 49.5061C29.865 49.5926 30.4344 49.6106 35.2452 49.6106C40.056 49.6106 40.6254 49.5926 42.5245 49.5025C43.6675 49.4906 44.7999 49.2821 45.8723 48.8863C46.6498 48.5861 47.3557 48.1264 47.9448 47.5367C48.5338 46.9471 48.9927 46.2406 49.2921 45.4628C49.6888 44.3919 49.8984 43.2607 49.9119 42.1187C49.9984 40.2196 50.0164 39.6502 50.0164 34.8394C50.0164 30.0285 49.9984 29.4592 49.9083 27.5601C49.8964 26.4171 49.688 25.2846 49.2921 24.2123ZM35.2452 44.0935C33.4149 44.0935 31.6257 43.5507 30.1039 42.5339C28.5821 41.517 27.396 40.0717 26.6955 38.3808C25.9951 36.6898 25.8119 34.8291 26.1689 33.034C26.526 31.2389 27.4074 29.5899 28.7016 28.2957C29.9958 27.0015 31.6447 26.1202 33.4398 25.7631C35.2349 25.406 37.0956 25.5893 38.7866 26.2897C40.4776 26.9901 41.9229 28.1762 42.9397 29.6981C43.9566 31.2199 44.4993 33.0091 44.4993 34.8394C44.4993 37.2937 43.5243 39.6475 41.7888 41.383C40.0534 43.1185 37.6995 44.0935 35.2452 44.0935ZM44.8633 27.3835C44.4356 27.3835 44.0176 27.2567 43.662 27.0191C43.3065 26.7815 43.0293 26.4438 42.8657 26.0487C42.702 25.6537 42.6592 25.2189 42.7426 24.7995C42.8261 24.3801 43.032 23.9948 43.3344 23.6924C43.6368 23.39 44.022 23.1841 44.4414 23.1007C44.8609 23.0173 45.2956 23.0601 45.6907 23.2237C46.0858 23.3874 46.4235 23.6645 46.661 24.0201C46.8986 24.3756 47.0254 24.7937 47.0254 25.2213C47.0254 25.7948 46.7976 26.3447 46.3921 26.7502C45.9867 27.1557 45.4367 27.3835 44.8633 27.3835ZM41.2524 34.8394C41.2524 36.0275 40.9001 37.1889 40.24 38.1768C39.58 39.1647 38.6418 39.9347 37.5441 40.3893C36.4464 40.844 35.2385 40.963 34.0732 40.7312C32.908 40.4994 31.8376 39.9272 30.9975 39.0871C30.1573 38.247 29.5852 37.1766 29.3534 36.0113C29.1216 34.846 29.2406 33.6382 29.6952 32.5405C30.1499 31.4428 30.9199 30.5046 31.9078 29.8445C32.8956 29.1845 34.0571 28.8321 35.2452 28.8321C36.8384 28.8321 38.3664 29.465 39.493 30.5916C40.6195 31.7182 41.2524 33.2462 41.2524 34.8394ZM35.2452 0.244629C28.403 0.244629 21.7145 2.27357 16.0254 6.07489C10.3363 9.87621 5.90223 15.2792 3.28383 21.6005C0.665441 27.9219 -0.0196502 34.8777 1.3152 41.5885C2.65004 48.2992 5.94487 54.4634 10.783 59.3015C15.6212 64.1397 21.7854 67.4345 28.4961 68.7694C35.2068 70.1042 42.1627 69.4191 48.484 66.8007C54.8054 64.1823 60.2084 59.7482 64.0097 54.0592C67.811 48.3701 69.8399 41.6816 69.8399 34.8394C69.8399 25.6643 66.1951 16.865 59.7074 10.3772C53.2196 3.88942 44.4203 0.244629 35.2452 0.244629V0.244629ZM53.1552 42.2664C53.1247 43.7617 52.8408 45.2409 52.3155 46.6412C51.8528 47.8379 51.1451 48.9247 50.2378 49.832C49.3305 50.7392 48.2437 51.4469 47.0471 51.9097C45.6479 52.4345 44.1699 52.7184 42.6759 52.7493C40.7515 52.8358 40.1389 52.8575 35.2452 52.8575C30.3515 52.8575 29.7389 52.8358 27.8145 52.7493C26.3205 52.7184 24.8425 52.4345 23.4434 51.9097C22.2467 51.4469 21.1599 50.7392 20.2526 49.832C19.3454 48.9247 18.6377 47.8379 18.1749 46.6412C17.65 45.2421 17.3661 43.7641 17.3352 42.27C17.2487 40.3457 17.2271 39.7331 17.2271 34.8394C17.2271 29.9457 17.2487 29.333 17.3352 27.4087C17.365 25.9149 17.6477 24.4369 18.1713 23.0375C18.634 21.8398 19.3421 20.7521 20.25 19.8442C21.1579 18.9363 22.2457 18.2282 23.4434 17.7654C24.8427 17.2418 26.3207 16.9591 27.8145 16.9294C29.7389 16.8429 30.3515 16.8213 35.2452 16.8213C40.1389 16.8213 40.7515 16.8429 42.6759 16.9294C44.1697 16.9591 45.6477 17.2418 47.0471 17.7654C48.2441 18.2286 49.3311 18.9369 50.2384 19.8448C51.1457 20.7527 51.8532 21.8402 52.3155 23.0375C52.8404 24.4367 53.1243 25.9147 53.1552 27.4087C53.2417 29.333 53.2633 29.9457 53.2633 34.8394C53.2633 39.7331 53.2417 40.3457 53.1552 42.27V42.2664Z" fill="url(#paint0_linear_70_37)"/>
<defs>
<linearGradient id="paint0_linear_70_37" x1="35.2452" y1="0.244629" x2="35.2452" y2="69.4341" gradientUnits="userSpaceOnUse">
<stop stop-color="white"/>
<stop offset="0.90625" stop-color="#D9D9D9" stop-opacity="0.5"/>
</linearGradient>
</defs>
</svg>
