<svg width="65" height="65" viewBox="0 0 65 65" fill="none" xmlns="http://www.w3.org/2000/svg">
<path fill-rule="evenodd" clip-rule="evenodd" d="M32.165 64.33C49.9292 64.33 64.33 49.9292 64.33 32.165C64.33 14.4008 49.9292 0 32.165 0C14.4008 0 0 14.4008 0 32.165C0 49.9292 14.4008 64.33 32.165 64.33ZM23.7516 23.9861H15.4889V48.8513H23.7516V23.9861ZM15 16.2934C15 13.8566 16.8476 12 19.6756 12C22.5023 12 24.2429 13.8566 24.297 16.2934C24.297 18.6801 22.5022 20.5907 19.6201 20.5907H19.5674C16.7935 20.5907 15 18.6802 15 16.2934ZM36.5919 27.5062C37.6881 25.8144 39.653 23.402 44.0389 23.402C49.4787 23.402 53.5547 26.9556 53.5547 34.593V48.8512H45.2908V35.5475C45.2908 32.2063 44.0956 29.9251 41.1028 29.9251C38.8218 29.9251 37.4619 31.4626 36.8634 32.9473C36.646 33.4801 36.5919 34.2211 36.5919 34.9648V48.8513H28.3267C28.3267 48.8513 28.4361 26.3188 28.3267 23.9861H36.5919V27.5062Z" fill="url(#paint0_linear_549_21)"/>
<defs>
<linearGradient id="paint0_linear_549_21" x1="32.165" y1="0" x2="32.165" y2="64.33" gradientUnits="userSpaceOnUse">
<stop stop-color="white"/>
<stop offset="1" stop-color="#D9D9D9" stop-opacity="0.5"/>
</linearGradient>
</defs>
</svg>
