<svg width="34" height="47" viewBox="0 0 34 47" fill="none" xmlns="http://www.w3.org/2000/svg">
<path d="M14.1132 46.6959H20.1754C20.5283 46.6959 20.817 46.4798 20.9453 46.1196L33.4226 10.2845C33.583 9.81626 33.3905 9.27603 32.9415 9.09596C32.8453 9.05994 32.749 9.02393 32.6528 9.02393H27.2641C26.9113 9.02393 26.6226 9.27603 26.4943 9.63619L24.0887 16.9833C23.9604 17.3434 23.6717 17.5956 23.3188 17.5956H11.0019C10.649 17.5956 10.3604 17.3795 10.2321 17.0193L7.69809 9.63619C7.56979 9.27603 7.28111 9.05994 6.92828 9.05994H1.31507C0.866014 9.05994 0.513184 9.45611 0.513184 9.96032C0.513184 10.0684 0.545259 10.1764 0.577335 10.2845L10.9698 39.4568L13.3434 46.1196C13.4717 46.4798 13.7924 46.6959 14.1132 46.6959ZM16.4868 35.6032L13.0226 25.1948C12.8622 24.7266 13.0868 24.1863 13.5038 24.0063C13.6 23.9703 13.6962 23.9342 13.7924 23.9342H20.6245C21.0736 23.9342 21.4264 24.3304 21.4264 24.8346C21.4264 24.9427 21.4264 25.0507 21.3622 25.1227L17.9622 35.5312C17.8019 35.9994 17.3528 36.2515 16.9038 36.0714C16.7113 36.0354 16.5509 35.8553 16.4868 35.6032Z" fill="url(#paint0_linear_102_40)"/>
<path d="M34 1.82069L33.8717 7.65516C33.8717 8.15938 33.4868 8.55554 33.0698 8.55554L21.3623 8.59156C20.9132 8.59156 20.5604 8.98773 20.5604 9.45592L20.2396 16.4069C20.2075 16.9111 19.8547 17.2712 19.4057 17.2712C18.8925 17.2712 17.8981 17.2352 14.6585 17.2712C14.2094 17.2712 13.8566 16.8751 13.8245 16.4069L13.5679 9.45592C13.5679 8.95171 13.183 8.59156 12.766 8.59156L0.801887 8.55554C0.35283 8.55554 0 8.15938 0 7.65516V1.64062C0 1.1364 0.35283 0.740234 0.801887 0.740234L33.166 0.884296C33.6151 0.920311 34 1.31648 34 1.82069Z" fill="url(#paint1_linear_102_40)"/>
<defs>
<linearGradient id="paint0_linear_102_40" x1="16.9958" y1="9.02393" x2="16.9958" y2="46.6959" gradientUnits="userSpaceOnUse">
<stop stop-color="white"/>
<stop offset="1" stop-color="#D9D9D9" stop-opacity="0.5"/>
</linearGradient>
<linearGradient id="paint1_linear_102_40" x1="17" y1="0.740234" x2="17" y2="17.2712" gradientUnits="userSpaceOnUse">
<stop stop-color="white"/>
<stop offset="1" stop-color="#D9D9D9" stop-opacity="0.5"/>
</linearGradient>
</defs>
</svg>
