<svg width="143" height="184" viewBox="0 0 143 184" fill="none" xmlns="http://www.w3.org/2000/svg">
<path d="M59.3817 183.378H84.7266C86.2017 183.378 87.4085 182.517 87.9449 181.081L140.11 38.2809C140.78 36.4152 139.976 34.2624 138.098 33.5448C137.696 33.4013 137.294 33.2578 136.891 33.2578H114.363C112.887 33.2578 111.681 34.2624 111.144 35.6976L101.087 64.9753C100.55 66.4105 99.3434 67.4151 97.8683 67.4151H46.3741C44.899 67.4151 43.6921 66.554 43.1557 65.1188L32.5618 35.6976C32.0254 34.2624 30.8186 33.4013 29.3435 33.4013H5.87605C3.99865 33.4013 2.52356 34.98 2.52356 36.9893C2.52356 37.4198 2.65766 37.8504 2.79176 38.2809L46.24 154.531L56.1634 181.081C56.6998 182.517 58.0408 183.378 59.3817 183.378ZM69.3051 139.174L54.8224 97.6975C54.1519 95.8317 55.0906 93.6789 56.8339 92.9614C57.2362 92.8178 57.6385 92.6743 58.0408 92.6743H86.6039C88.4813 92.6743 89.9564 94.253 89.9564 96.2623C89.9564 96.6928 89.9564 97.1234 89.6882 97.4104L75.4737 138.887C74.8032 140.753 72.9258 141.758 71.0484 141.04C70.2438 140.896 69.5733 140.179 69.3051 139.174Z" fill="url(#paint0_linear_42_355)"/>
<path d="M142.523 4.55457L141.987 27.8045C141.987 29.8138 140.378 31.3925 138.635 31.3925L89.6882 31.536C87.8108 31.536 86.3357 33.1147 86.3357 34.9804L84.9947 62.6794C84.8606 64.6887 83.3855 66.1239 81.5081 66.1239C79.3625 66.1239 75.2055 65.9803 61.6614 66.1239C59.784 66.1239 58.3089 64.5452 58.1748 62.6794L57.102 34.9804C57.102 32.9712 55.4928 31.536 53.7495 31.536L3.73042 31.3925C1.85302 31.3925 0.37793 29.8138 0.37793 27.8045V3.83698C0.37793 1.82772 1.85302 0.249023 3.73042 0.249023L139.037 0.823098C140.914 0.966616 142.523 2.54531 142.523 4.55457Z" fill="url(#paint1_linear_42_355)"/>
<defs>
<linearGradient id="paint0_linear_42_355" x1="72.8216" y1="55.8552" x2="85.0504" y2="202.58" gradientUnits="userSpaceOnUse">
<stop offset="0.0735428" stop-color="#008AC0"/>
<stop offset="0.4493" stop-color="#0089BE"/>
<stop offset="0.5846" stop-color="#0083B6"/>
<stop offset="0.6811" stop-color="#047AA9"/>
<stop offset="0.7591" stop-color="#096E97"/>
<stop offset="0.826" stop-color="#0D5F82"/>
<stop offset="0.8852" stop-color="#0D4E6A"/>
<stop offset="0.9386" stop-color="#0B3B50"/>
<stop offset="0.9862" stop-color="#072938"/>
<stop offset="1" stop-color="#062330"/>
</linearGradient>
<linearGradient id="paint1_linear_42_355" x1="72.0921" y1="-30.2784" x2="68.8851" y2="121.905" gradientUnits="userSpaceOnUse">
<stop stop-color="#062330"/>
<stop offset="0.0453292" stop-color="#0A3446"/>
<stop offset="0.1026" stop-color="#0C4760"/>
<stop offset="0.1656" stop-color="#0E5A7A"/>
<stop offset="0.2342" stop-color="#0A6A92"/>
<stop offset="0.3108" stop-color="#0578A6"/>
<stop offset="0.3999" stop-color="#0082B4"/>
<stop offset="0.5127" stop-color="#0088BD"/>
<stop offset="0.7283" stop-color="#008AC0"/>
<stop offset="1" stop-color="#008AC0"/>
</linearGradient>
</defs>
</svg>
