<svg width="119" height="119" viewBox="0 0 119 119" fill="none" xmlns="http://www.w3.org/2000/svg">
<circle cx="59.5" cy="59.5" r="59.5" fill="#0486C0"/>
<path d="M79.6518 31C77.0251 31 74.3984 32.0193 72.3598 34.0579L32.6852 73.7326L32.5284 74.5166L29.7841 88.3165L29 92.0017L32.6852 91.2176L46.4851 88.4733L47.2691 88.3165L86.9438 48.6419C91.021 44.5646 91.021 38.1352 86.9438 34.0579C84.9052 32.0193 82.2785 31 79.6518 31ZM79.6518 35.7829C80.9161 35.7829 82.1903 36.3612 83.4154 37.5863C85.8559 40.0268 85.8559 42.673 83.4154 45.1135L81.612 46.8385L74.1632 39.3897L75.8882 37.5863C77.1133 36.3612 78.3875 35.7829 79.6518 35.7829ZM70.6348 42.9181L78.0836 50.3669L47.7396 80.7109C46.093 77.4962 43.5055 74.9087 40.2908 73.2621L70.6348 42.9181ZM37.0761 77.3393C40.085 78.5547 42.447 80.9167 43.6624 83.9256L35.4295 85.5722L37.0761 77.3393Z" fill="white"/>
</svg>
