<svg width="65" height="65" viewBox="0 0 65 65" fill="none" xmlns="http://www.w3.org/2000/svg">
<path d="M32.1632 0.568359C14.4016 0.568359 0 14.97 0 32.7315C0 50.493 14.4016 64.8947 32.1632 64.8947C49.9247 64.8947 64.3263 50.493 64.3263 32.7315C64.3263 14.97 49.9247 0.568359 32.1632 0.568359ZM47.6201 24.8128C47.6417 25.1502 47.6417 25.502 47.6417 25.8466C47.6417 36.3858 39.6152 48.5259 24.948 48.5259C20.425 48.5259 16.2323 47.2121 12.7001 44.9506C13.3463 45.0224 13.9637 45.0512 14.6242 45.0512C18.3574 45.0512 21.7891 43.7876 24.5244 41.6482C21.0209 41.5764 18.0774 39.279 17.0723 36.1201C18.3 36.2996 19.4056 36.2996 20.6691 35.9766C18.8652 35.6101 17.2437 34.6303 16.0803 33.2038C14.9168 31.7773 14.2831 29.992 14.2868 28.1511V28.0506C15.3421 28.6465 16.5841 29.0127 17.8836 29.0629C16.7912 28.3349 15.8953 27.3486 15.2754 26.1914C14.6555 25.0343 14.3307 23.742 14.3298 22.4293C14.3298 20.9431 14.7175 19.5863 15.4139 18.4089C17.4162 20.8738 19.9148 22.8898 22.7473 24.3258C25.5798 25.7618 28.6827 26.5857 31.8545 26.744C30.7273 21.3236 34.7764 16.9371 39.644 16.9371C41.9413 16.9371 44.009 17.8991 45.4664 19.4499C47.2684 19.1124 48.9914 18.4376 50.5277 17.533C49.9319 19.3781 48.6827 20.936 47.0243 21.9195C48.6324 21.7472 50.1831 21.3021 51.619 20.6775C50.5349 22.2713 49.178 23.6856 47.6201 24.8128Z" fill="url(#paint0_linear_69_231)"/>
<defs>
<linearGradient id="paint0_linear_69_231" x1="32.1632" y1="0.568359" x2="32.1632" y2="64.8947" gradientUnits="userSpaceOnUse">
<stop stop-color="white"/>
<stop offset="1" stop-color="#D9D9D9" stop-opacity="0.5"/>
</linearGradient>
</defs>
</svg>
